<svg xmlns="http://www.w3.org/2000/svg" version="1.1" xmlns:xlink="http://www.w3.org/1999/xlink" xmlns:svgjs="http://svgjs.dev/svgjs" width="2000" height="2250" viewBox="0 0 2000 2250"><g transform="matrix(1,0,0,1,0,0)"><svg viewBox="0 0 320 360" data-background-color="#8abcd7" preserveAspectRatio="xMidYMid meet" height="2250" width="2000" xmlns="http://www.w3.org/2000/svg" xmlns:xlink="http://www.w3.org/1999/xlink"><g id="tight-bounds" transform="matrix(1,0,0,1,0,0)"><svg viewBox="0 0 320 360" height="360" width="320"><g><svg></svg></g><g><svg viewBox="0 0 320 360" height="360" width="320"><g><path xmlns="http://www.w3.org/2000/svg" d="M320 187.111c0-45.764-20.238-86.866-52.203-114.908-28.043-31.964-69.145-52.203-114.908-52.203-84.302 0-152.889 68.587-152.889 152.889 0 45.753 20.231 86.848 52.185 114.891 28.043 31.975 69.152 52.22 114.926 52.22 0.299 0 0.59-0.021 0.889-0.021 0.299 0 0.59 0.021 0.889 0.021 83.456 0 151.111-67.655 151.111-151.111 0-0.299-0.021-0.59-0.021-0.889 0-0.299 0.021-0.59 0.021-0.889zM59.833 263.097c-15.093-21.255-24.071-47.143-24.256-75.097 0.48-72.928 59.492-131.943 132.423-132.423 27.954 0.185 53.845 9.163 75.097 24.256 24.366 23.627 39.57 56.64 39.57 93.056 0 71.559-58.219 129.778-129.778 129.778-36.416 0-69.429-15.204-93.056-39.57zM3.556 172.889c0-82.343 66.99-149.333 149.333-149.333 35.051 0 67.292 12.167 92.8 32.462-22.98-13.824-49.863-21.796-78.578-21.796-84.302 0-152.889 68.587-152.889 152.889 0 28.708 7.968 55.584 21.785 78.56-20.288-25.5-32.452-57.739-32.451-92.782zM167.111 318.667c-35.84 0-68.363-14.418-92.107-37.743 21.952 15.89 48.864 25.298 77.885 25.298 73.522 0 133.333-59.812 133.333-133.333 0-29.02-9.408-55.932-25.298-77.885 23.324 23.744 37.742 56.267 37.743 92.107 0 72.54-59.015 131.556-131.556 131.556z" fill="#ffffff" fill-rule="nonzero" stroke="none" stroke-width="1" stroke-linecap="butt" stroke-linejoin="miter" stroke-miterlimit="10" stroke-dasharray="" stroke-dashoffset="0" font-family="none" font-weight="none" font-size="none" text-anchor="none" style="mix-blend-mode: normal" data-fill-palette-color="tertiary"></path></g><g transform="matrix(1,0,0,1,81.729766,142.1489743120515)"><svg viewBox="0 0 156.540468 75.70205137589696" height="75.70205137589696" width="156.540468"><g><svg viewBox="0 0 156.540468 75.70205137589696" height="75.70205137589696" width="156.540468"><g><svg viewBox="0 0 156.540468 75.70205137589696" height="75.70205137589696" width="156.540468"><g><path d="M0 75.702v-75.702h156.54v75.702z" fill="#ffffff" stroke="transparent" stroke-width="0" rx="0%" data-fill-palette-color="tertiary"></path><path d="M2.955 72.747v-69.792h150.631v69.792z" fill="#8abcd7" stroke="transparent" stroke-width="0" rx="0%" data-fill-palette-color="quaternary"></path><path d="M8.865 66.837v-57.972h138.811v57.972z" fill="#ffffff" stroke="transparent" stroke-width="0" data-fill-palette-color="tertiary"></path></g><g transform="matrix(1,0,0,1,17.729765999999998,17.729765999999998)" id="textblocktransform"><svg viewBox="0 0 121.08093600000001 40.24251937589697" height="40.24251937589697" width="121.08093600000001" id="textblock"><g><svg viewBox="0 0 121.08093600000001 40.24251937589697" height="40.24251937589697" width="121.08093600000001"><g transform="matrix(1,0,0,1,0,0)"><svg width="121.08093600000001" viewBox="4 -39.95000076293945 121.54476165771484 40.400001525878906" height="40.24251937589697" data-palette-color="#8abcd7"><path d="M26.15-10.5L26.15-37.55Q26.15-39.95 29.1-39.95L29.1-39.95Q32.05-39.95 32.05-37.55L32.05-37.55 32.05-3.05Q32.05-1.3 30.2-0.5L30.2-0.5 30.25-0.5Q29.45-0.15 28.55 0.05 27.65 0.25 26.8 0.25L26.8 0.25Q26.15 0.25 25.45 0.13 24.75 0 24.13-0.28 23.5-0.55 22.98-1.03 22.45-1.5 22.15-2.2L22.15-2.2 11.3-29.25 9.95-29.1 9.95-2.1Q9.95 0.3 6.95 0.3L6.95 0.3Q4 0.3 4-2.1L4-2.1 4-36.55Q4-38.6 5.8-39.3L5.8-39.3Q7.45-39.95 9.3-39.95L9.3-39.95Q10.6-39.95 11.93-39.43 13.25-38.9 13.95-37.45L13.95-37.45 24.75-10.35 26.15-10.5ZM63.65-1.2L52.65-34.8 41.7-1.2 41.7-1.25Q41.4-0.5 40.87-0.03 40.35 0.45 39.6 0.45L39.6 0.45Q39.2 0.45 38.82 0.38 38.45 0.3 38.05 0.2L38.05 0.2 38.1 0.2Q35.25-0.7 36-3L36-3 47.4-37.65Q47.65-38.45 48.27-39 48.9-39.55 49.75-39.65L49.75-39.65Q50.6-39.8 51.4-39.88 52.2-39.95 52.65-39.95L52.65-39.95Q53.1-39.95 53.9-39.88 54.7-39.8 55.55-39.7L55.55-39.7Q56.25-39.6 56.92-38.95 57.6-38.3 57.95-37.65L57.95-37.65Q60.75-29.05 63.62-20.33 66.5-11.6 69.3-3L69.3-3Q70-0.7 67.2 0.2L67.2 0.2Q66.8 0.3 66.47 0.38 66.15 0.45 65.75 0.45L65.75 0.45Q65.05 0.45 64.47-0.03 63.9-0.5 63.65-1.25L63.65-1.25 63.65-1.2ZM56.4-12L56.4-12Q56.4-10.4 55.27-9.28 54.15-8.15 52.55-8.15L52.55-8.15Q50.95-8.15 49.85-9.28 48.75-10.4 48.75-12L48.75-12Q48.75-13.6 49.85-14.73 50.95-15.85 52.55-15.85L52.55-15.85Q54.15-15.85 55.27-14.73 56.4-13.6 56.4-12ZM87.15-34.65L87.15-2Q87.15 0.4 84.15 0.4L84.15 0.4Q81.2 0.4 81.2-2L81.2-2 81.2-34.65 72.45-34.65Q70.65-34.65 70.55-37.2L70.55-37.2Q70.55-39.7 72.45-39.7L72.45-39.7 95.9-39.7Q97.8-39.7 97.7-37.2L97.7-37.2Q97.7-34.65 95.9-34.65L95.9-34.65 87.15-34.65ZM123.64 0.05L105.34 0.05Q103.49 0.05 102.84-0.9 102.19-1.85 102.19-3L102.19-3 102.19-36.7Q102.19-37.85 102.84-38.78 103.49-39.7 105.34-39.7L105.34-39.7 122.74-39.7Q124.59-39.7 124.69-37.2L124.69-37.2Q124.79-34.65 122.74-34.65L122.74-34.65 108.09-34.65 108.09-5 123.64-5Q125.49-5 125.54-2.55L125.54-2.55Q125.64 0.05 123.64 0.05L123.64 0.05ZM120.89-20.65L120.89-20.65Q120.89-18.9 119.67-17.7 118.44-16.5 116.69-16.5L116.69-16.5Q114.99-16.5 113.79-17.7 112.59-18.9 112.59-20.65L112.59-20.65Q112.59-22.4 113.79-23.6 114.99-24.8 116.69-24.8L116.69-24.8Q118.44-24.8 119.67-23.6 120.89-22.4 120.89-20.65Z" opacity="1" transform="matrix(1,0,0,1,0,0)" fill="#8abcd7" class="wordmark-text-0" data-fill-palette-color="quaternary" id="text-0"></path></svg></g></svg></g></svg></g></svg></g><g></g></svg></g></svg></g></svg></g><defs></defs></svg><rect width="320" height="360" fill="none" stroke="none" visibility="hidden"></rect></g></svg></g></svg>